{"title":"Paul.2011.EXTENDED.720p.BRRip.x264.AC3.dxva-HDLiTE","uid":6480118,"size":2483101520,"categoryP":"video","categoryS":"hd___movies","magnet":"?xt=urn:btih:cfc7ef516017c454a59f70ce7928375c5ef5ef06&amp;dn=Paul.2011.EXTENDED.720p.BRRip.x264.AC3.dxva-HDLiTE&amp;tr=udp%3A%2F%2Ftracker.openbittorrent.com%3A80&amp;tr=udp%3A%2F%2Fopen.demonii.com%3A1337&amp;tr=udp%3A%2F%2Ftracker.coppersurfer.tk%3A6969&amp;tr=udp%3A%2F%2Fexodus.desync.com%3A6969","seeders":0,"leechers":1,"uploader":"Test_Verify","files":4,"time":1308482221,"description":"ooooo   ooooo oooooooooo.   ooooo         o8o  ooooooooooooo oooooooooooo\n`888'   `888' `888'   `Y8b  `888'         `&quot;'  8'   888   `8 `888'     `8\n888     888   888      888  888         oooo       888       888\n888ooooo888   888      888  888         `888       888       888oooo8\n888     888   888      888  888          888       888       888    &quot;\n888     888   888     d88'  888       o  888       888       888       o\no888o   o888o o888bood8P'   o888ooooood8 o888o     o888o     o888ooooood8\n\nPRESENTS:\n\nPaul.2011.EXTENDED.720p.BRRip.x264.AC3.dxva-HDLiTE\n\nEncoded By                       : Lifechanger\nSource                           : EXTENDED.1080p.BluRay.X264-AVCHD\nIMDB                             : &lt;a href=&quot; http://www.imdb.com/title/tt1092026/&quot; rel=&quot;nofollow&quot; target=&quot;_NEW&quot;&gt; http://www.imdb.com/title/tt1092026/&lt;/a&gt;\n\nGeneral\nFormat                           : Matroska\nFile size                        : 2.29 GiB\nDuration                         : 1h 49mn\nOverall bit rate                 : 3 003 Kbps\nEncoded date                     : UTC 2011-06-11 01:39:48\n\nVideo\nID                               : 1\nFormat                           : AVC\nFormat/Info                      : Advanced Video Codec\nFormat profile                   : &lt;a class=&quot;__cf_email__&quot; href=&quot;/cdn-cgi/l/email-protection&quot; data-cfemail=&quot;430b2a242b030f776d72&quot;&gt;[email&amp;#160;protected]&lt;/a&gt;&lt;script cf-hash='f9e31' type=&quot;text/javascript&quot;&gt;\n/* &lt;![CDATA[ */!function(){try{var t=&quot;currentScript&quot;in document?document.currentScript:function(){for(var t=document.getElementsByTagName(&quot;script&quot;),e=t.length;e--;)if(t[e].getAttribute(&quot;cf-hash&quot;))return t[e]}();if(t&amp;&amp;t.previousSibling){var e,r,n,i,c=t.previousSibling,a=c.getAttribute(&quot;data-cfemail&quot;);if(a){for(e=&quot;&quot;,r=parseInt(a.substr(0,2),16),n=2;a.length-n;n+=2)i=parseInt(a.substr(n,2),16)^r,e+=String.fromCharCode(i);e=document.createTextNode(e),c.parentNode.replaceChild(e,c)}}}catch(u){}}();/* ]]&gt; */&lt;/script&gt;\nFormat settings, CABAC           : Yes\nFormat settings, ReFrames        : 5 frames\nCodec ID                         : V_MPEG4/ISO/AVC\nDuration                         : 1h 49mn\nBit rate                         : 2 560 Kbps\nWidth                            : 1 280 pixels\nHeight                           : 544 pixels\nDisplay aspect ratio             : 2.35:1\nFrame rate                       : 23.976 fps\nColor space                      : YUV\nChroma subsampling               : 4:2:0\nBit depth                        : 8 bits\nScan type                        : Progressive\nBits/(Pixel*Frame)               : 0.153\nStream size                      : 1.90 GiB (83%)\nWriting library                  : x264 core 114 r1913 5fd3dce\nLanguage                         : English\n\nAudio\nID                               : 2\nFormat                           : AC-3\nFormat/Info                      : Audio Coding 3\nMode extension                   : CM (complete main)\nCodec ID                         : A_AC3\nDuration                         : 1h 49mn\nBit rate mode                    : Constant\nBit rate                         : 448 Kbps\nChannel(s)                       : 6 channels\nChannel positions                : Front: L C R, Side: L R, LFE\nSampling rate                    : 48.0 KHz\nBit depth                        : 16 bits\nCompression mode                 : Lossy\nStream size                      : 350 MiB (15%)\nLanguage                         : English\n\nSubtitles           : Ro","torrent":{"xt":"urn:btih:cfc7ef516017c454a59f70ce7928375c5ef5ef06","amp;dn":"Paul.2011.EXTENDED.720p.BRRip.x264.AC3.dxva-HDLiTE","amp;tr":["udp%3A%2F%2Ftracker.openbittorrent.com%3A80","udp%3A%2F%2Fopen.demonii.com%3A1337","udp%3A%2F%2Ftracker.coppersurfer.tk%3A6969","udp%3A%2F%2Fexodus.desync.com%3A6969"],"infoHash":"cfc7ef516017c454a59f70ce7928375c5ef5ef06","infoHashBuffer":{"type":"Buffer","data":[207,199,239,81,96,23,196,84,165,159,112,206,121,40,55,92,94,245,239,6]},"announce":[],"urlList":[]}}